<svg width="275" height="21" viewBox="0 0 275 21" fill="none" xmlns="http://www.w3.org/2000/svg">
  <path fill-rule="evenodd" clip-rule="evenodd" d="M117.426 3.11729C116.526 2.21729 115.526 1.51729 114.326 1.01729C113.126 0.517285 111.726 0.217285 110.326 0.217285C108.826 0.217285 107.526 0.517285 106.326 1.01729C105.126 1.51729 104.026 2.21729 103.126 3.11729C102.226 4.01729 101.526 5.11729 101.026 6.31729C100.526 7.51729 100.326 8.81728 100.326 10.1173C100.326 11.4173 100.526 12.7173 101.026 13.9173C101.526 15.1173 102.126 16.1173 103.026 16.9173L105.826 11.8173L108.626 14.6173L111.726 7.21729L110.426 6.61729L114.026 4.01729L114.626 8.41728L113.326 7.81729L109.326 17.3173L106.326 14.4173L104.426 18.0173C105.026 18.5173 105.726 18.8173 106.426 19.1173C107.626 19.6173 109.026 19.9173 110.426 19.9173C111.926 19.9173 113.226 19.6173 114.426 19.1173C116.826 18.1173 118.726 16.2173 119.626 13.8173C120.126 12.6173 120.326 11.3173 120.326 10.0173C120.326 8.71728 120.126 7.41729 119.626 6.21729C118.926 5.01729 118.226 4.01729 117.426 3.11729Z" fill="#818EA2"/>
  <path d="M0.526367 19.8172H14.1264V16.7172H3.92637V0.417188H0.526367V19.8172ZM19.2264 0.417188V19.7172H22.6264V0.417188H19.2264ZM37.2264 15.3172L31.3264 0.417188H27.5264L35.5264 19.9172H38.5264L46.5264 0.417188H42.8264L37.2264 15.3172ZM65.7264 0.417188H51.4264V19.7172H65.9264V16.7172H54.8264V11.5172H64.5264V8.51719H54.8264V3.51719H65.7264V0.417188ZM149.526 13.8172L139.126 0.417188H136.026V19.7172H139.326V6.01719L150.026 19.8172H152.826V0.417188H149.526V13.8172ZM96.4264 16.7172L94.2264 14.5172C93.4264 15.3172 92.5264 15.9172 91.7264 16.3172C90.9264 16.8172 89.8264 17.0172 88.7264 17.0172C87.8264 17.0172 86.9264 16.8172 86.1264 16.5172C85.3264 16.1172 84.6264 15.6172 84.1264 15.0172C83.5264 14.4172 83.1264 13.6172 82.8264 12.8172C82.5264 12.0172 82.3264 11.1172 82.3264 10.1172C82.3264 9.11719 82.5264 8.21719 82.8264 7.41719C83.1264 6.61719 83.6264 5.81719 84.1264 5.21719C84.7264 4.61719 85.3264 4.11719 86.1264 3.71719C86.9264 3.31719 87.7264 3.21719 88.7264 3.21719C89.8264 3.21719 90.8264 3.41719 91.7264 3.91719C92.6264 4.31719 93.4264 4.91719 94.2264 5.61719L96.3264 3.11719C95.8264 2.71719 95.4264 2.31719 94.8264 1.91719C94.3264 1.51719 93.7264 1.21719 93.1264 0.917188C92.5264 0.617188 91.8264 0.417188 91.1264 0.317188C90.4264 0.217188 89.6264 0.117188 88.7264 0.117188C87.2264 0.117188 85.9264 0.417188 84.7264 0.917188C83.5264 1.41719 82.4264 2.11719 81.5264 3.01719C80.6264 3.91719 79.9264 5.01719 79.4264 6.21719C78.9264 7.41719 78.7264 8.71719 78.7264 10.1172C78.7264 11.5172 78.9264 12.8172 79.4264 14.0172C79.9264 15.2172 80.6264 16.3172 81.5264 17.2172C82.4264 18.1172 83.4264 18.8172 84.6264 19.3172C85.8264 19.8172 87.1264 20.1172 88.5264 20.1172C89.4264 20.1172 90.2264 20.0172 91.0264 19.9172C91.7264 19.7172 92.4264 19.5172 93.1264 19.2172C93.7264 18.9172 94.3264 18.5172 94.9264 18.1172C95.4264 17.7172 95.9264 17.2172 96.4264 16.7172ZM126.026 0.417188V19.7172H129.426V0.417188H126.026ZM174.326 14.8172L169.726 0.517188H166.026L172.726 20.0172H175.626L180.526 6.01719L185.326 19.9172H188.226L194.926 0.417188H191.326L186.726 14.7172L181.926 0.317188H179.026L174.326 14.8172ZM207.326 0.317188H204.226L195.726 19.8172H199.226L201.226 15.1172H210.326L212.326 19.8172H215.926L207.326 0.317188ZM209.026 12.1172H202.326L205.626 4.41719L209.026 12.1172ZM232.426 3.61719V0.417188H216.726V3.51719H222.826V19.7172H226.226V3.61719H232.426ZM253.226 16.7172L251.026 14.5172C250.226 15.3172 249.326 15.9172 248.526 16.3172C247.726 16.8172 246.626 17.0172 245.526 17.0172C244.626 17.0172 243.726 16.8172 242.926 16.5172C242.126 16.1172 241.426 15.6172 240.926 15.0172C240.326 14.4172 239.926 13.6172 239.626 12.8172C239.326 12.0172 239.126 11.1172 239.126 10.1172C239.126 9.11719 239.326 8.21719 239.626 7.41719C239.926 6.61719 240.426 5.81719 240.926 5.21719C241.526 4.61719 242.126 4.11719 242.926 3.71719C243.726 3.31719 244.526 3.21719 245.526 3.21719C246.626 3.21719 247.626 3.41719 248.526 3.91719C249.426 4.31719 250.226 4.91719 251.026 5.61719L253.226 3.11719C252.726 2.71719 252.326 2.31719 251.726 1.91719C251.226 1.51719 250.626 1.21719 250.026 0.917188C249.426 0.617188 248.726 0.417188 248.026 0.317188C247.226 0.217188 246.426 0.117188 245.526 0.117188C244.026 0.117188 242.726 0.417188 241.526 0.917188C240.326 1.41719 239.226 2.11719 238.426 3.11719C237.526 4.01719 236.826 5.11719 236.326 6.31719C235.826 7.51719 235.626 8.81719 235.626 10.2172C235.626 11.6172 235.826 12.9172 236.326 14.1172C236.826 15.3172 237.526 16.4172 238.426 17.3172C239.326 18.2172 240.326 18.9172 241.526 19.4172C242.726 19.9172 244.026 20.2172 245.426 20.2172C246.326 20.2172 247.126 20.1172 247.926 20.0172C248.626 19.8172 249.326 19.6172 250.026 19.3172C250.626 19.0172 251.226 18.6172 251.826 18.2172C252.226 17.7172 252.726 17.2172 253.226 16.7172ZM270.826 11.6172V19.7172H274.226V0.417188H270.826V8.41719H261.626V0.417188H258.226V19.7172H261.626V11.6172H270.826Z" fill="#818EA2"/>
  </svg>